<svg width="168" height="29" viewBox="0 0 168 29" fill="none" xmlns="http://www.w3.org/2000/svg">
<path fill-rule="evenodd" clip-rule="evenodd" d="M0 28.38H14.07V0.12H9.84V9.27H4.2V0.12H0V28.38ZM9.84 24.3H4.2V13.86H9.84V24.3ZM19.74 28.38H24V0H19.74V9.6H15.3V13.77H19.74V28.38ZM53.85 28.38V24.45H28.05V28.38H53.85ZM40.95 5.64L47.58 18.84H52.83L43.8 0.09H38.1L29.07 18.84H34.32L40.95 5.64ZM68.85 15.72H64.23L65.64 10.74H57.3V6.99H66.69L67.5 4.2H56.85V0.15H72.21V3.99L68.85 15.72ZM64.14 17.7H76.35C79.29 17.7 81.69 20.1 81.69 23.04C81.69 25.98 79.29 28.38 76.35 28.38H64.14C61.2 28.38 58.8 25.98 58.8 23.04C58.8 20.1 61.2 17.7 64.14 17.7ZM64.2 24.6H76.29C77.1 24.6 77.64 23.82 77.64 23.04C77.64 22.26 77.1 21.48 76.29 21.48H64.2C63.39 21.48 62.85 22.26 62.85 23.04C62.85 23.82 63.39 24.6 64.2 24.6ZM81.6 15.84H77.43V0H81.6V15.84ZM110.8 15.36V12.21H85V15.36H110.8ZM86.17 10.89H109.6V7.41H105.79V3.66H109.6V0.150002H86.17V3.66H90.25V7.41H86.17V10.89ZM90.64 24H109.06V16.65H86.74V19.8H105.16V20.88H86.74V28.38H109.06V25.14H90.64V24ZM101.44 7.41H94.57V3.66H101.44V7.41ZM125.11 0.15V9.42H117.04V11.97H125.11V15.54H113.05V6.09H121.12V3.6H113.05V0.15H125.11ZM126.76 22.59L120.82 28.38H114.94L125.17 18.27H128.35L138.58 28.38H132.7L126.76 22.59ZM127.27 0H131.35V5.52H133.66V0H137.8V19.2H133.66V9.51H131.35V15.75H127.27V0ZM157.03 12H166.45V8.37H162.73V3.81H166.45V0.150002H143.02V3.81H147.01V8.37H143.02V12H152.47V13.59H141.85V17.1H167.65V13.59H157.03V12ZM165.91 28.38V18.72H143.59V28.38H165.91ZM147.79 22.2H161.71V24.9H147.79V22.2ZM158.29 8.37H151.45V3.81H158.29V8.37Z" fill="#6041FE"/>
</svg>
